# xmcd CD database file
#
# Track frame offsets:
#	150
#	43046
#	74813
#	92646
#	123113
#	152675
#	178811
#	197893
#	222069
#	244886
#	256965
#	278748
#
# Disc length: 3972 seconds
#
# Revision: 0
# Processed by: cddbd v1.5.2PL0 Copyright (c) Steve Scherf et al.
# Submitted via: CDex 1.70beta2
#
DISCID=b00f820c
DTITLE=Various Artist - Jazz Roads CD165 - Swing - Ben Webster Vol.7 (1957)
DYEAR=2006
DGENRE=Jazz
TTITLE0=Harry Edison and Ben Webster - Blues For Bill Basie
TTITLE1=Harry Edison and Ben Webster - Taste On The Place
TTITLE2=Harry Edison and Ben Webster - Moonlight In Vermont
TTITLE3=Ben Webster and Coleman Hawkins - Blues For Yolande
TTITLE4=Ben Webster and Coleman Hawkins - Maria
TTITLE5=Ben Webster and Coleman Hawkins - It Never Entered My Mind
TTITLE6=Ben Webster and Coleman Hawkins - Prisoner Of Love
TTITLE7=Ben Webster and Coleman Hawkins - Tangerine
TTITLE8=Ben Webster and Coleman Hawkins - La Rosita
TTITLE9=Ben Webster and Coleman Hawkins - Cocktails For Two
TTITLE10=Ben Webster and Coleman Hawkins - Shine On, Harvest Moon
TTITLE11=Ben Webster and Coleman Hawkins - You'd Be So Nice To Come Home To
EXTD=YEAR: 2006
EXTT0=
EXTT1=
EXTT2=
EXTT3=
EXTT4=
EXTT5=
EXTT6=
EXTT7=
EXTT8=
EXTT9=
EXTT10=
EXTT11=
PLAYORDER=
